<?xml version="1.0" encoding="utf-8"?>
<!-- Generator: Adobe Illustrator 26.3.1, SVG Export Plug-In . SVG Version: 6.00 Build 0)  -->
<svg version="1.1" id="Слой_1" xmlns="http://www.w3.org/2000/svg" xmlns:xlink="http://www.w3.org/1999/xlink" x="0px" y="0px"
	 viewBox="0 0 480 480" style="enable-background:new 0 0 480 480;" xml:space="preserve">
<style type="text/css">
	.st0{fill:#1A1A1A;stroke:#000000;stroke-miterlimit:10;}
	.st1{fill:none;stroke:#FFFFFF;stroke-width:8;stroke-miterlimit:10;}
	.st2{fill:#FFFFFF;stroke:#FFFFFF;stroke-width:8;stroke-miterlimit:10;}
	.st3{fill:none;stroke:#000000;stroke-width:10;stroke-miterlimit:10;}
	.st4{fill:none;stroke:#000000;stroke-width:15;stroke-miterlimit:10;}
	.st5{fill:none;stroke:#000000;stroke-width:5;stroke-miterlimit:10;}
	.st6{fill:#FFD260;stroke:#000000;stroke-width:5;stroke-miterlimit:10;}
	.st7{fill:none;stroke:#000000;stroke-width:19;stroke-miterlimit:10;}
	.st8{fill:none;stroke:#000000;stroke-width:14;stroke-miterlimit:10;}
	.st9{fill:none;stroke:#000000;stroke-width:9;stroke-miterlimit:10;}
	.st10{fill:none;stroke:#000000;stroke-width:16;stroke-miterlimit:10;}
	.st11{fill:none;stroke:#000000;stroke-miterlimit:10;}
	.st12{fill:none;stroke:#000000;stroke-width:12;stroke-miterlimit:10;}
	.st13{fill:#FFD260;}
	.st14{fill:none;}
</style>
<rect x="539.98" y="9.98" class="st0" width="480" height="480"/>
<g>
	<polygon class="st1" points="237.81,468.25 76.52,370.76 84.94,356.31 237,448 394.28,356.31 402.7,370.76 	"/>
	<polyline class="st1" points="87.92,370.94 237.93,457.57 389.09,372.01 	"/>
	<path class="st2" d="M86.12,353.32l-0.21-58.63c0-10.75,3.9-20.92,10.97-28.69c3.86-4.22,8.42-7.55,13.58-9.94
		c2.45-1.13,5.02-2.04,7.66-2.71c9.54-2.45,25.55-6.01,37.3-8.57l4.71-1.03l15.46-3.74l5.41-1.22l1-14.84
		c-14.75-13.88-23.09-31.83-23.09-50.08v-32.79h-8.43V88.4l-34.94-10.92l0.11-26.06l122.56-37.17l127.17,42.36l-1.2,120.36
		c8.43,2.41,14.44,10.83,14.39,18.87c-0.09,12.61-10.53,22.87-23.47,22.87s-23.53-10.26-23.47-22.87
		c0.06-12.85,8.48-16.46,13.3-18.87V86.7l-18.05,3.61v50.55l-8.12,0.15l-0.96,35.23c-0.06,16.69-7.93,33.68-21.83,47.41l1.26,15.62
		c5.07,1.07,11.91,2.53,19.33,4.13c2.07,0.45,4.21,0.91,6.37,1.38c11.73,2.56,27.75,6.12,37.3,8.57c2.63,0.67,5.19,1.58,7.63,2.7
		c5.16,2.37,9.73,5.71,13.58,9.92c7.08,7.77,10.97,17.91,10.99,28.59l0.69,57.53l-55.58,31.18l-99.71,59.7l0,0L86.12,353.32z"/>
	<path class="st2" d="M307.04,128.98l-1.28,47.09c0,16.45-9.45,31.72-22.26,42.71l2.46,30.42c0,0,0.77,0.16,2.15,0.45
		c4.26,0.9,14.37,3.03,25.9,5.52l0,0c2.07,0.45,4.19,0.9,6.33,1.37c13.76,3,28.35,6.28,36.89,8.47c2.02,0.52,3.88,1.19,5.57,1.97
		c4.1,1.89,7.28,4.43,9.74,7.11c5.16,5.67,7.84,13.02,7.84,20.55l0.6,50.44l-49.35,27.68l-93.28,52.9l-0.17,0.1L98.13,346.29
		l-0.18-51.65c0-7.52,2.67-14.88,7.84-20.55c2.46-2.68,5.63-5.22,9.73-7.11c1.7-0.78,3.55-1.46,5.58-1.97
		c8.55-2.19,23.13-5.48,36.89-8.47c1.64-0.36,3.25-0.71,4.85-1.06l15.41-3.73l9.63-2.18l0.89,0.37c2.29-0.47,3.6-0.75,3.6-0.75
		l2.04-30.39c-13.91-11.24-23.46-27.52-23.46-44.94v-44.82h-8.43V82.1l8.24,0.03l-43.15-13.48l0.04-8.28l110.41-33.48l115.92,38.31
		l0,0l0,0l0.54,119.85c0.2-0.01,0.39-0.03,0.59-0.03c6.32,0,11.43,4.85,11.43,10.83c0,5.98-5.12,10.83-11.43,10.83
		c-6.32,0-11.43-4.85-11.43-10.83c0-4.98,3.55-9.16,8.38-10.43l0.72-114.21l-36.11,10.83l-1.2,46.94H307.04z"/>
</g>
<polyline class="st3" points="83,365 237.2,458.47 396,365 "/>
<g>
	<path class="st4" d="M166.89,432.46"/>
	<line class="st3" x1="237.7" y1="425.29" x2="238.41" y2="324.27"/>
	<polyline class="st5" points="242.52,69.62 354.56,69.7 353.85,188.17 	"/>
	<ellipse class="st6" cx="354.45" cy="196" rx="11.43" ry="10.83"/>
	<ellipse cx="205.81" cy="155.07" rx="7.82" ry="6.62"/>
	<line class="st3" x1="146.23" y1="324.27" x2="146.23" y2="373.53"/>
	<path class="st7" d="M297.25,303.17"/>
	<path class="st7" d="M238.56,400.36"/>
	<path class="st7" d="M147.31,261.68"/>
	<path class="st7" d="M228.91,319.21"/>
	<path class="st7" d="M232.11,358.08"/>
	<path class="st7" d="M238.56,400.36"/>
	<ellipse cx="270.8" cy="155.07" rx="7.82" ry="6.62"/>
	<line class="st3" x1="328.68" y1="324.27" x2="328.68" y2="373.62"/>
	<path class="st7" d="M237.67,430.2"/>
	<path class="st8" d="M263.05,144.26"/>
	<path class="st8" d="M173.97,144.26"/>
	<path class="st8" d="M277.97,144.26"/>
	<path class="st8" d="M303.52,144.26"/>
	<path class="st7" d="M213.44,126.1"/>
	<path class="st9" d="M259.05,186.42c0,10.91-9.23,19.74-20.62,19.74c-11.39,0-20.62-8.84-20.62-19.74"/>
	<path class="st7" d="M208.58,195.6"/>
	<path class="st4" d="M302.89,192.9"/>
	<path class="st10" d="M319.28,256.7"/>
	<path class="st11" d="M284.89,249.35"/>
	<polyline class="st12" points="315.44,82.34 315.35,129.2 161.87,129.2 161.87,82.26 	"/>
	<polygon class="st12" points="352.32,64.48 352.17,69.81 352.07,72.78 237.27,103.27 126.97,68.8 127,60.52 237.41,27.03 	"/>
	<path class="st3" d="M170.3,129.2v44.82c0,17.69,9.83,34.19,24.07,45.45c26.36,20.84,61.25,22.36,87.86,0
		c13.12-11.02,22.87-26.53,22.87-43.24l1.2-47.03"/>
	<g>
		<polygon class="st13" points="353.25,268.82 238.91,329 117.34,268.82 158.26,259.19 238.91,298.91 311.12,259.19 		"/>
	</g>
	<g>
		<polygon class="st13" points="306.31,259.19 307.51,259.19 238.41,294.18 162.19,255.64 160.96,255.05 187.23,249.73 
			188.12,250.1 238.41,271.31 281.03,253.17 281.03,253.17 		"/>
	</g>
	<path class="st14" d="M157.06,256.78"/>
	<path class="st14" d="M319.55,256.78"/>
	<path class="st9" d="M162.19,255.64c-1.6,0.35-3.21,0.7-4.85,1.06c-13.76,3-28.35,6.28-36.89,8.47c-2.03,0.52-3.89,1.19-5.58,1.97
		c-4.09,1.89-7.27,4.43-9.73,7.11c-5.16,5.67-7.84,13.02-7.84,20.55l0.18,51.65l0,0l140.05,79.48l0.17-0.1l93.28-52.9l49.35-27.68
		l-0.6-50.44c0-7.52-2.67-14.88-7.84-20.55c-2.46-2.68-5.63-5.22-9.74-7.11c-1.7-0.78-3.55-1.46-5.57-1.97
		c-8.55-2.19-23.13-5.48-36.89-8.47c-2.14-0.47-4.26-0.93-6.33-1.37"/>
	<path class="st9" d="M193.77,218.87L193.77,218.87l-2.05,30.49c0,0-1.31,0.28-3.6,0.75c-5.08,1.08-14.96,3.17-25.94,5.54
		l76.82,37.94l74.35-38.26c-11.53-2.49-21.64-4.62-25.9-5.52c-1.38-0.29-2.15-0.45-2.15-0.45l-2.47-30.49"/>
	<path class="st3" d="M324.25,392.18"/>
</g>
</svg>
